name C:\Users\u0101727\Documents\MyRepositories\upper-imu-dc\Results\main_tracking\Case_44\kinematics.mot
datacolumns 10
datarows 23
range 2.00000000 2.22000000
endheader 
time	clav_prot	clav_elev	scapula_abduction	scapula_elevation	scapula_upward_rot	scapula_winging	plane_elv	shoulder_elv	axial_rot	
          2.00000000	        -25.43932324	          4.22886381	          8.38284154	         -4.54230032	         51.52719627	         -4.99736533	         61.30557057	         71.16832956	        -20.35614475	
          2.01000000	        -25.53863738	          4.30110303	          8.50445059	         -4.52204703	         51.90677540	         -5.05930923	         61.11885449	         71.47933678	        -20.21460829	
          2.02000000	        -25.64189222	          4.36917005	          8.62025395	         -4.50413818	         52.28609171	         -5.11951565	         60.92837126	         71.78917154	        -20.06836570	
          2.03000000	        -25.74897228	          4.43328124	          8.73023719	         -4.48840336	         52.66497275	         -5.17806340	         60.73440562	         72.09779896	        -19.91760592	
          2.04000000	        -25.85975600	          4.49367727	          8.83439115	         -4.47465684	         53.04324657	         -5.23503794	         60.53723302	         72.40517689	        -19.76258036	
          2.05000000	        -25.97411783	          4.55061970	          8.93271156	         -4.46270025	         53.42074437	         -5.29053078	         60.33711713	         72.71125628	        -19.60359179	
          2.06000000	        -26.09192974	          4.60438706	          9.02519885	         -4.45232546	         53.79730232	         -5.34463871	         60.13430793	         73.01598229	        -19.44098088	
          2.07000000	        -26.21306240	          4.65527061	          9.11185819	         -4.44331760	         54.17276241	         -5.39746281	         59.92904082	         73.31929623	        -19.27511064	
          2.08000000	        -26.33738640	          4.70357013	          9.19269887	         -4.43545798	         54.54697301	         -5.44910742	         59.72153668	         73.62113799	        -19.10634925	
          2.09000000	        -26.46477382	          4.74959000	          9.26773296	         -4.42852687	         54.91978935	         -5.49967924	         59.51200255	         73.92144879	        -18.93505226	
          2.10000000	        -26.59510025	          4.79363581	          9.33697324	         -4.42230596	         55.29107410	         -5.54928669	         59.30063255	         74.22017362	        -18.76154580	
          2.11000000	        -26.72824683	          4.83601171	          9.40043086	         -4.41658014	         55.66069823	         -5.59803940	         59.08760853	         74.51726310	        -18.58611259	
          2.12000000	        -26.86410214	          4.87701870	          9.45811339	         -4.41113884	         56.02854196	         -5.64604807	         58.87310035	         74.81267423	        -18.40898258	
          2.13000000	        -27.00256321	          4.91695374	          9.51002384	         -4.40577653	         56.39449557	         -5.69342435	         58.65726543	         75.10637019	        -18.23032961	
          2.14000000	        -27.14353548	          4.95610931	          9.55616107	         -4.40029291	         56.75845970	         -5.74028076	         58.44024772	         75.39831926	        -18.05027473	
          2.15000000	        -27.28693164	          4.99477296	          9.59652164	         -4.39449303	         57.12034482	         -5.78673035	         58.22217620	         75.68849349	        -17.86889529	
          2.16000000	        -27.43266962	          5.03322595	          9.63110248	         -4.38818786	         57.48006998	         -5.83288592	         58.00316315	         75.97686719	        -17.68623775	
          2.17000000	        -27.58067032	          5.07174100	          9.65990396	         -4.38119558	         57.83756098	         -5.87885892	         57.78330282	         76.26341570	        -17.50233148	
          2.18000000	        -27.73085565	          5.11057911	          9.68293258	         -4.37334353	         58.19274858	         -5.92475806	         57.56267089	         76.54811413	        -17.31720151	
          2.19000000	        -27.88314718	          5.14998613	          9.70020286	         -4.36447033	         58.54556702	         -5.97068791	         57.34132524	         76.83093604	        -17.13087925	
          2.20000000	        -28.03746555	          5.19018961	          9.71173832	         -4.35442799	         58.89595320	         -6.01674772	         57.11930821	         77.11185210	        -16.94341124	
          2.21000000	        -28.19373045	          5.23139637	          9.71757182	         -4.34308350	         59.24384632	         -6.06303050	         56.89665031	         77.39082864	        -16.75486623	
          2.22000000	        -28.35186098	          5.27379080	          9.71774520	         -4.33031999	         59.58918794	         -6.10962242	         56.67337480	         77.66782635	        -16.56534074	
